<svg width="13" height="13" viewBox="0 0 13 13" fill="none" xmlns="http://www.w3.org/2000/svg">
<path d="M2.42969 4.57031H10.4297V11.0703C10.4297 11.2029 10.377 11.3301 10.2832 11.4239C10.1895 11.5176 10.0623 11.5703 9.92969 11.5703H2.92969C2.79708 11.5703 2.6699 11.5176 2.57613 11.4239C2.48237 11.3301 2.42969 11.2029 2.42969 11.0703V4.57031ZM3.42969 5.57031V10.5703H9.42969V5.57031H3.42969ZM4.92969 6.57031H5.92969V9.57031H4.92969V6.57031ZM6.92969 6.57031H7.92969V9.57031H6.92969V6.57031ZM3.92969 3.07031V2.07031C3.92969 1.9377 3.98237 1.81053 4.07613 1.71676C4.1699 1.62299 4.29708 1.57031 4.42969 1.57031H8.42969C8.5623 1.57031 8.68947 1.62299 8.78324 1.71676C8.87701 1.81053 8.92969 1.9377 8.92969 2.07031V3.07031H11.4297V4.07031H1.42969V3.07031H3.92969ZM4.92969 2.57031V3.07031H7.92969V2.57031H4.92969Z" fill="#D10000"/>
</svg>
