<svg width="176" height="176" viewBox="0 0 176 176" fill="none" xmlns="http://www.w3.org/2000/svg">
<path opacity="0.5" d="M88.0002 0.000358886C136.601 0.000358886 176 39.3994 176 88.0002C176 136.601 136.601 176 88.0002 176C39.3994 176 0.000365012 136.601 0.000365012 88.0002C-0.137926 39.5372 39.0366 0.13865 87.4992 0.000358886C87.6662 -0.000119629 87.8332 -0.000119629 88.0002 0.000358886Z" fill="#FD9899"/>
<path opacity="0.8" d="M87.9989 11.8924C130.032 11.8924 164.107 45.9672 164.107 88.0004C164.107 130.034 130.032 164.108 87.9989 164.108C45.9657 164.108 11.8909 130.034 11.8909 88.0004C11.7713 46.0864 45.652 12.012 87.5656 11.8924C87.71 11.892 87.8545 11.892 87.9989 11.8924Z" fill="#FD5A5C"/>
<path d="M87.9976 23.784C123.463 23.784 152.214 52.5047 152.214 87.9334C152.214 123.362 123.463 152.083 87.9976 152.083C52.5321 152.083 23.7815 123.362 23.7815 87.9334C23.6806 52.6052 52.2674 23.8848 87.632 23.784C87.7539 23.7836 87.8757 23.7836 87.9976 23.784Z" fill="#CF0C0F"/>
<path d="M92.0632 87.9975L104.458 75.63C105.001 75.0871 105.306 74.3509 105.306 73.5831C105.306 72.8154 105.001 72.0792 104.458 71.5363C103.915 70.9934 103.179 70.6885 102.411 70.6885C101.644 70.6885 100.908 70.9934 100.365 71.5363L87.999 83.9326L75.6332 71.5363C75.0904 70.9934 74.3543 70.6885 73.5867 70.6885C72.8191 70.6885 72.0829 70.9934 71.5401 71.5363C70.9973 72.0792 70.6924 72.8154 70.6924 73.5831C70.6924 74.3509 70.9973 75.0871 71.5401 75.63L83.9347 87.9975L71.5401 100.365C71.27 100.633 71.0555 100.952 70.9092 101.303C70.7628 101.654 70.6875 102.031 70.6875 102.412C70.6875 102.792 70.7628 103.169 70.9092 103.521C71.0555 103.872 71.27 104.191 71.5401 104.459C71.8081 104.729 72.1269 104.943 72.4781 105.09C72.8294 105.236 73.2062 105.311 73.5867 105.311C73.9672 105.311 74.3439 105.236 74.6952 105.09C75.0465 104.943 75.3653 104.729 75.6332 104.459L87.999 92.0623L100.365 104.459C100.633 104.729 100.951 104.943 101.303 105.09C101.654 105.236 102.031 105.311 102.411 105.311C102.792 105.311 103.169 105.236 103.52 105.09C103.871 104.943 104.19 104.729 104.458 104.459C104.728 104.191 104.942 103.872 105.089 103.521C105.235 103.169 105.31 102.792 105.31 102.412C105.31 102.031 105.235 101.654 105.089 101.303C104.942 100.952 104.728 100.633 104.458 100.365L92.0632 87.9975Z" fill="white"/>
</svg>
