<svg width="176" height="176" viewBox="0 0 176 176" fill="none" xmlns="http://www.w3.org/2000/svg">
<path opacity="0.5" d="M88.0002 0.000358886C136.601 0.000358886 176 39.3994 176 88.0002C176 136.601 136.601 176 88.0002 176C39.3994 176 0.000365012 136.601 0.000365012 88.0002C-0.137926 39.5372 39.0366 0.13865 87.4992 0.000358886C87.6662 -0.000119629 87.8332 -0.000119629 88.0002 0.000358886Z" fill="#FD9899" fill-opacity="0.5"/>
<path opacity="0.8" d="M88.0002 11.8922C130.033 11.8922 164.108 45.967 164.108 88.0001C164.108 130.033 130.033 164.108 88.0002 164.108C45.9671 164.108 11.8923 130.033 11.8923 88.0001C11.7727 46.0862 45.6534 12.0118 87.5669 11.8922C87.7113 11.8917 87.8558 11.8917 88.0002 11.8922Z" fill="#FD5A5C" fill-opacity="0.4"/>
<path d="M87.9999 23.784C123.465 23.784 152.216 52.5047 152.216 87.9334C152.216 123.362 123.465 152.083 87.9999 152.083C52.5344 152.083 23.7838 123.362 23.7838 87.9334C23.6829 52.6052 52.2698 23.8848 87.6343 23.784C87.7562 23.7836 87.878 23.7836 87.9999 23.784Z" fill="#CF0C0F"/>
<path d="M92.0643 87.9975L104.459 75.63C105.002 75.0871 105.307 74.3509 105.307 73.5831C105.307 72.8154 105.002 72.0792 104.459 71.5363C103.916 70.9934 103.18 70.6885 102.412 70.6885C101.645 70.6885 100.909 70.9934 100.366 71.5363L88 83.9326L75.6342 71.5363C75.0915 70.9934 74.3553 70.6885 73.5877 70.6885C72.8201 70.6885 72.0839 70.9934 71.5411 71.5363C70.9984 72.0792 70.6934 72.8154 70.6934 73.5831C70.6934 74.3509 70.9984 75.0871 71.5411 75.63L83.9357 87.9975L71.5411 100.365C71.271 100.633 71.0565 100.952 70.9102 101.303C70.7639 101.654 70.6885 102.031 70.6885 102.412C70.6885 102.792 70.7639 103.169 70.9102 103.521C71.0565 103.872 71.271 104.191 71.5411 104.459C71.8091 104.729 72.1279 104.943 72.4792 105.09C72.8304 105.236 73.2072 105.311 73.5877 105.311C73.9682 105.311 74.345 105.236 74.6962 105.09C75.0475 104.943 75.3663 104.729 75.6342 104.459L88 92.0623L100.366 104.459C100.634 104.729 100.953 104.943 101.304 105.09C101.655 105.236 102.032 105.311 102.412 105.311C102.793 105.311 103.17 105.236 103.521 105.09C103.872 104.943 104.191 104.729 104.459 104.459C104.729 104.191 104.943 103.872 105.09 103.521C105.236 103.169 105.311 102.792 105.311 102.412C105.311 102.031 105.236 101.654 105.09 101.303C104.943 100.952 104.729 100.633 104.459 100.365L92.0643 87.9975Z" fill="white"/>
</svg>
