<svg width="173" height="34" viewBox="0 0 173 34" fill="none" xmlns="http://www.w3.org/2000/svg">
<path d="M56.9741 7.93164H57.0315C57.376 7.93164 57.577 8.19003 57.577 8.53454V24.009C57.577 24.2673 57.376 24.5544 57.0315 24.5544C56.7731 24.5544 56.486 24.3535 56.486 24.009V8.47712C56.486 8.19003 56.687 7.93164 56.9741 7.93164ZM42.2461 8.73551H52.3806C52.7251 8.73551 52.926 9.08002 52.926 9.33841C52.926 9.59679 52.7251 9.88389 52.3806 9.88389H42.7916V16.3435H51.4619C51.7202 16.3435 52.0073 16.5445 52.0073 16.889C52.0073 17.1474 51.8064 17.4345 51.4619 17.4345H42.8777V24.0951C42.8203 24.4396 42.5332 24.698 42.2174 24.698C41.8729 24.698 41.6145 24.4396 41.6145 24.0951V9.36712H41.6719C41.6432 8.99389 41.9303 8.73551 42.2461 8.73551ZM71.6733 13.53C71.6733 13.1855 71.415 12.9845 71.1279 12.9845C70.7834 12.9845 70.5824 13.2429 70.5824 13.53V19.9896C70.5824 22.2003 68.7737 23.9228 66.5631 23.8654C64.2089 23.8654 62.8595 22.3438 62.8595 19.9322V13.53C62.8595 13.1855 62.6011 12.9845 62.3141 12.9845C62.0557 12.9845 61.7686 13.2429 61.7686 13.53V20.1332C61.7686 22.8606 63.5199 24.8702 66.3908 24.8702C68.1421 24.9277 69.8072 24.009 70.6111 22.4586V24.1238C70.6111 24.4683 70.8695 24.6693 71.1566 24.6693C71.5011 24.6693 71.7021 24.4109 71.7021 24.1238H71.6446V13.53H71.6733ZM81.8652 13.6161C81.8652 13.8745 81.6068 14.0755 81.3197 14.0755H77.6162V21.4825C77.6162 23.1477 78.5636 23.7506 79.9704 23.7506C80.4297 23.7506 80.9178 23.6931 81.3197 23.5496C81.5781 23.5496 81.7791 23.7506 81.7791 24.009C81.7791 24.2099 81.6355 24.4109 81.4346 24.4683C80.8891 24.6693 80.2862 24.7267 79.7694 24.7267C78.0182 24.7267 76.554 23.7219 76.554 21.5974V14.0755H75.2907C75.0324 14.0755 74.7453 13.8171 74.7453 13.53C74.7453 13.2716 75.0037 13.0706 75.2907 13.0706H76.554V9.88389C76.554 9.6255 76.7549 9.33841 77.0133 9.33841H77.0707C77.3291 9.33841 77.6162 9.59679 77.6162 9.88389V13.0706H81.3197C81.6068 13.0706 81.8652 13.329 81.8652 13.6161ZM90.4781 14.0755C90.7365 14.0755 91.0236 13.8745 91.0236 13.6161C91.0236 13.3577 90.7652 13.0706 90.4781 13.0706H86.7745V9.88389C86.7745 9.6255 86.5162 9.33841 86.2291 9.33841H86.1716C85.9133 9.33841 85.7123 9.59679 85.7123 9.88389V13.0706H84.4491C84.1907 13.0706 83.9036 13.2716 83.9036 13.53C83.9036 13.7884 84.162 14.0755 84.4491 14.0755H85.7123V21.5974C85.7123 23.7219 87.1765 24.7267 88.9278 24.7267C89.4732 24.7267 90.0761 24.6693 90.5929 24.4683C90.7939 24.4109 90.9374 24.2099 90.9374 24.009C90.9374 23.7506 90.7365 23.5496 90.4781 23.5496C90.0761 23.6931 89.6168 23.7506 89.1287 23.7506C87.722 23.7506 86.7745 23.1477 86.7745 21.4825V14.0755H90.4781ZM93.0332 18.8125C93.0332 15.4248 95.3874 12.7548 98.5454 12.7548C101.847 12.7548 103.914 15.4248 103.914 18.8125C103.914 19.0709 103.656 19.358 103.369 19.358H94.239C94.44 22.229 96.5358 23.8941 98.8038 23.8941C100.211 23.8941 101.617 23.2912 102.565 22.2864C102.622 22.229 102.766 22.1428 102.909 22.1428C103.168 22.1428 103.455 22.4012 103.455 22.6883C103.455 22.8319 103.397 22.9467 103.254 23.0903C102.105 24.3535 100.44 25.0138 98.7464 24.9564C95.6458 24.9564 93.0332 22.5448 93.0332 18.8987V18.8125ZM108.278 16.4009C109.024 14.4774 110.833 13.0706 112.9 12.9271C113.245 12.9271 113.503 13.1855 113.503 13.5874C113.503 13.8458 113.302 14.1903 112.958 14.1903H112.9C110.402 14.4487 108.278 16.2574 108.278 19.9896V24.2673C108.221 24.6119 108.02 24.8128 107.675 24.8128C107.417 24.8128 107.13 24.5544 107.13 24.2673V13.5874C107.187 13.2429 107.388 13.0419 107.732 13.0419C107.991 13.0419 108.278 13.3003 108.278 13.5874V16.4009ZM131.217 12.3242C130.413 12.3242 129.753 12.8697 129.552 13.6448L127.599 19.8461L125.647 13.6448C125.446 12.841 124.7 12.2381 123.839 12.2381H123.638C122.776 12.2381 122.03 12.7835 121.829 13.6448L119.877 19.7887L118.01 13.5874C117.81 12.841 117.149 12.2668 116.345 12.2668H116.288C115.427 12.2668 114.738 13.0132 114.738 13.8745C114.738 14.1329 114.795 14.42 114.881 14.6784L117.896 23.2912C118.097 24.1525 118.843 24.7554 119.762 24.8128H119.905C120.767 24.8128 121.513 24.2099 121.771 23.3486L123.724 17.2048L125.676 23.3486C125.877 24.2099 126.681 24.8128 127.542 24.8128H127.686C128.633 24.8128 129.437 24.2099 129.638 23.2912L132.652 14.621C132.71 14.42 132.796 14.1616 132.796 13.9606V13.9032C132.767 13.0132 132.107 12.3242 131.217 12.3242ZM135.925 12.9271C137.188 12.5252 138.48 12.2668 139.83 12.3242C141.696 12.3242 143.045 12.8697 144.05 13.731C144.997 14.7932 145.457 16.2 145.399 17.6067V23.0615C145.399 24.009 144.653 24.7267 143.734 24.7267C142.873 24.7267 142.126 24.1238 142.069 23.2625C141.122 24.2673 139.772 24.8702 138.366 24.7841C136.155 24.7841 134.203 23.4635 134.203 21.0519C134.203 18.3819 136.212 17.1187 139.112 17.1187C140.117 17.1187 141.122 17.2622 142.069 17.578V17.3771C142.069 15.9129 141.208 15.1664 139.456 15.1664C138.653 15.1664 137.849 15.2238 137.045 15.5109C136.901 15.5684 136.7 15.5684 136.586 15.5684C135.782 15.6258 135.121 15.0229 135.121 14.2477C135.064 13.6735 135.38 13.1281 135.925 12.9271ZM155.735 13.4726C155.936 12.7261 156.596 12.2668 157.342 12.2668C158.29 12.2668 159.008 13.0132 159.008 13.8745V13.9319C159.008 14.1903 158.95 14.4774 158.807 14.7358L155.189 23.3486C154.845 24.2099 154.041 24.7554 153.18 24.8128H152.979C152.031 24.7554 151.313 24.1525 151.026 23.2912L147.265 14.6784C147.122 14.42 147.064 14.1329 147.064 13.8745C147.122 12.9271 147.868 12.2668 148.73 12.2668C149.534 12.2668 150.194 12.8123 150.395 13.53L153.007 20.5351L155.735 13.4726ZM160.386 19.0709C160.529 22.4012 163.4 25.0138 166.759 24.8128C168.31 24.8128 169.774 24.3535 170.98 23.3486C171.324 23.0903 171.439 22.7457 171.439 22.3438V22.2864C171.439 21.5399 170.836 20.9657 170.09 20.9657C169.831 20.9657 169.487 21.0232 169.286 21.2241C168.539 21.7696 167.678 22.0854 166.788 22.028C165.324 22.0854 164.032 21.0806 163.831 19.6164H170.75C171.611 19.559 172.3 18.8125 172.214 17.9513V17.6929C172.214 14.6784 169.601 12.1519 166.386 12.2381C162.826 12.2381 160.328 15.109 160.328 18.5829V19.0709H160.386Z" fill="#10112B"/>
<path d="M94.1617 18.2673C94.3627 15.7408 96.1714 13.7886 98.4682 13.7886C101.081 13.7886 102.488 15.9131 102.631 18.2673H94.1617ZM142.107 20.2769C142.107 21.5976 140.958 22.4014 139.351 22.344C138.288 22.344 137.484 21.7985 137.484 20.8798V20.8224C137.484 19.8176 138.432 19.1573 139.896 19.1573C140.642 19.1573 141.446 19.3582 142.107 19.6166V20.2769ZM166.424 14.9944C165.017 14.9944 164.069 15.9992 163.811 17.6069H168.979C168.778 16.0566 167.83 14.9944 166.424 14.9944Z" fill="white"/>
<path d="M24.2813 0.266318C39.3825 -2.00173 29.7074 10.8601 25.0277 14.4775C28.2432 16.9466 31.5448 20.4204 32.9515 24.3536C35.5641 31.5597 29.1332 32.6219 24.2813 30.8132C18.97 28.9471 14.2904 24.9565 11.1897 20.2768C10.3284 20.2768 9.38103 20.1333 8.49104 19.8749C10.2423 24.813 10.9888 29.8658 10.5007 34C10.5007 25.6742 6.53879 17.4059 0.8256 10.5156C-1.18407 8.10401 0.883017 6.32402 2.69172 8.6495C3.92622 10.3434 5.0459 12.0946 6.05073 13.9033C8.03169 7.1279 17.6781 1.21373 24.2813 0.266318ZM22.1281 12.5253C25.0851 10.7166 34.0712 1.07019 25.688 1.93147C20.8648 2.47695 15.0081 6.92692 12.5965 9.79788C15.9555 9.39594 19.3719 10.8601 22.1281 12.5253ZM13.8023 20.0185C16.501 23.033 20.1758 25.9613 24.1377 27.0236C26.4345 27.6265 28.9609 27.3681 28.0422 24.0952C27.0948 21.0807 24.6832 18.4394 22.329 16.4298C21.6687 16.8891 20.9223 17.3772 20.1758 17.693C18.1661 18.8127 16.0129 19.6165 13.8023 20.0185Z" fill="#EBA12A"/>
<path d="M12.5088 11.922C14.8055 11.721 17.2745 12.9268 19.1694 14.1326C17.3607 14.9939 15.351 15.5394 13.2552 15.6542C10.1833 15.6829 9.55169 12.2091 12.5088 11.922Z" fill="white"/>
</svg>
