<svg width="93" height="14" viewBox="0 0 93 14" fill="none" xmlns="http://www.w3.org/2000/svg">
<path d="M0.157609 8.85128C0.273485 8.67667 0.466612 8.5155 0.633988 8.36776C1.00737 8.04541 1.38075 7.70962 1.74125 7.37384C2.35925 6.82316 3.09313 6.27248 3.60814 5.61435C4.14889 5.18455 4.70252 4.33838 7.29042 4.33838C7.5608 5.292 7.9728 6.60826 10.0199 8.82442C10.0199 8.82442 9.90407 8.87814 9.89119 8.89157C9.77532 8.9453 9.64656 8.99903 9.51781 9.03932C9.06718 9.2005 8.60368 9.32138 8.1273 9.40197C7.43204 9.50942 6.72392 9.52284 6.02866 9.45569C5.74541 9.42883 5.46215 9.38853 5.19178 9.32138C5.05015 9.29451 4.89565 9.25422 4.75402 9.21393C4.65102 9.18706 4.5609 9.17364 4.47077 9.13334C4.36777 9.07962 4.29052 8.99903 4.18752 8.9453C4.02014 8.86471 3.85277 8.87815 3.69826 8.99903C3.49226 9.14677 3.38926 9.17363 3.22189 9.01246C3.05451 8.85128 2.95151 9.26765 2.91288 9.28108C2.87426 9.29452 2.79701 9.38854 2.65538 9.24079C2.51375 9.09305 2.16613 9.13334 2.15325 9.38853C2.08888 9.59 1.67687 9.52284 1.59962 9.42882C1.52237 9.33481 1.31637 9.28108 1.13612 9.4154C0.981617 9.52285 0.839991 9.69745 0.814241 9.88549C0.78849 10.0064 0.814239 10.1407 0.852864 10.2616C0.878615 10.3422 0.917241 10.4093 0.968742 10.4765C0.994492 10.5168 1.02024 10.5571 1.05887 10.5973C1.08462 10.6242 1.09749 10.6645 1.13612 10.6779C1.14899 10.6779 1.14899 10.6914 1.16187 10.6914C1.31637 10.7317 1.52237 10.7585 1.664 10.6779C1.664 10.6779 1.93437 10.5302 2.08888 10.7317C2.2305 10.9197 2.57813 10.96 2.73263 10.7317C2.87426 10.5033 3.18326 10.7451 3.18326 10.7451C3.18326 10.7451 3.33776 10.9331 3.59526 10.7585C3.64676 10.5302 3.99439 10.5302 4.13602 10.5705C4.27764 10.6108 4.41927 10.369 4.41927 10.369C4.41927 10.369 4.59952 10.2884 4.7669 10.463C5.03728 10.463 5.11453 10.3019 5.20465 10.1541C5.29478 10.0064 5.60378 10.1407 5.62953 10.3153C5.75828 10.4496 6.05441 10.369 6.09304 10.2481C6.13166 10.1273 6.18316 9.96608 6.44066 10.0198C6.69816 10.0735 6.64666 10.2884 6.85267 10.2078C7.05867 10.1273 7.07154 9.92578 7.14879 9.89892C7.22604 9.87206 7.38055 9.8452 7.49642 10.0198C7.62517 10.181 7.8698 10.1138 7.9213 10.0064C7.9728 9.89893 8.0243 9.68402 8.2303 9.69745C8.4363 9.71088 8.32043 9.8452 8.47493 9.93922C8.62943 10.0198 8.78393 10.0064 8.96418 9.72431C9.14443 9.44226 9.45344 9.61687 9.45344 9.61687C9.45344 9.61687 9.78819 9.67059 9.91694 9.4154C10.0586 9.1602 10.3933 9.02589 10.6379 9.21393C10.8826 9.40197 11.2173 9.85863 12.2731 10.275C12.2731 10.275 11.4233 12.7866 7.68955 13.5119C3.95577 14.2372 0.788489 11.5913 0.505237 11.1615C0.337861 10.9063 0.337861 10.5436 0.376486 10.2481C0.389361 10.1407 0.427987 10.0467 0.427987 9.93922C0.415112 9.93922 0.415111 9.93922 0.402236 9.93922C0.33786 9.89893 0.273485 9.8452 0.221985 9.79147C0.18336 9.75118 0.144735 9.71088 0.10611 9.65716C0.015984 9.54971 -0.00976662 9.3751 0.00310849 9.24079C0.0288587 9.09305 0.0803588 8.95873 0.157609 8.85128Z" fill="#023E4F"/>
<path d="M18.1699 5.43974C16.4961 -0.0805141 12.4276 0.188108 11.6164 0.228402C10.7924 0.282127 8.24316 0.134383 7.61228 0.228402C6.96852 0.322421 6.9299 1.50437 6.9299 1.50437C6.9299 1.50437 6.44064 1.97447 6.36339 2.17594C6.15739 2.68632 6.33764 3.65337 6.33764 3.65337C6.40202 4.20405 6.68527 4.72788 6.9299 5.2114C7.22603 5.78895 7.57365 6.33963 7.92128 6.89031C8.30754 7.49472 8.64229 8.07226 9.18304 8.55579C9.59505 8.93186 10.0457 9.25422 10.5221 9.53627C11.5649 10.1541 12.7237 10.5705 13.934 10.5973C14.6292 10.6108 15.3373 10.5705 15.994 10.369C16.3545 10.2616 16.7021 10.1004 16.9854 9.84519C17.1012 9.73774 17.2171 9.61686 17.2815 9.46912C17.333 9.3348 17.2944 9.18706 17.2944 9.05274C17.2944 8.905 17.2944 8.75726 17.2944 8.60951C17.2944 8.55579 17.2944 8.39461 17.3459 8.35432C17.4102 8.30059 17.8094 8.0857 18.0282 7.96481C18.1184 7.91109 18.1827 7.81707 18.2085 7.70962C18.2471 7.30668 18.3501 6.35306 18.1699 5.43974ZM16.4704 8.28716C16.303 8.28716 16.097 8.3006 16.0197 8.19315C15.9425 8.0857 15.7236 8.07226 15.5691 8.17971C15.3373 8.24687 15.1313 7.93795 15.1313 7.93795C15.1313 7.93795 15.0798 7.81707 14.758 7.8305C14.4361 7.84393 14.3073 7.73648 14.1915 7.54844C14.0885 7.3604 13.7151 7.46785 13.6507 7.44099C13.5863 7.41413 13.3803 7.27982 13.2773 7.03805C13.1743 6.79629 12.7752 6.87688 12.6979 6.85002C12.6207 6.82316 12.6207 6.42022 12.3503 6.35306C12.0799 6.28591 11.8611 6.36649 11.7967 6.23218C11.7323 6.08443 11.7838 5.6815 11.5778 5.69493C11.3589 5.70836 11.0371 5.61434 10.9212 5.43974C10.8182 5.26513 10.9083 5.15768 10.6766 5.10396C10.4448 5.05023 10.2259 4.92935 10.1744 4.83533C10.1229 4.74131 9.9298 4.67415 9.9298 4.67415L9.49204 4.62042C9.49204 4.62042 9.33754 4.59356 9.24742 4.3518C9.15729 4.11004 8.80966 4.19063 8.70666 4.1369C8.60366 4.08318 8.59079 3.72053 8.32041 3.66681C8.05003 3.61308 7.79253 3.38475 7.75391 3.19671C7.71528 3.00868 7.66378 2.87436 7.40628 2.74005C7.16165 2.60573 7.25178 2.61917 7.20028 2.45799C7.20028 2.45799 6.8784 2.22966 7.05865 1.89388C7.2389 1.54467 7.56078 1.5178 7.72816 1.5178C7.89553 1.5178 8.15303 1.57153 8.24316 1.74613C8.33329 1.92074 8.33329 2.13564 8.69379 2.1625C9.05429 2.17594 9.19592 2.48485 9.19592 2.48485L9.63367 2.65946C9.63367 2.65946 9.55642 2.68632 9.81392 2.90122C10.0714 3.10269 10.2903 3.0624 10.2903 3.0624C10.2903 3.0624 10.4706 3.12955 10.5736 3.47877C10.6766 3.82798 12.9554 6.82316 14.3588 7.25296C15.7493 7.68276 16.3287 7.88422 16.4317 8.01853C16.5734 8.09912 16.6377 8.28716 16.4704 8.28716Z" fill="#01789A"/>
<path d="M32.8217 1.39685V0H32.59C32.1007 0 31.5986 0 31.0964 0C30.6072 0 30.1051 0 29.6802 0H29.5772V0.41637C29.5643 1.41028 29.5643 2.4042 29.5514 3.39811C29.5257 4.71438 28.766 5.54711 27.5043 5.69486C26.706 5.78888 25.8949 5.89633 24.9808 6.01721C24.9808 4.06968 24.9808 2.08185 24.9808 0.107453C23.8606 0.107453 22.8564 0.107453 21.865 0.107453C21.865 4.67408 21.865 9.14669 21.865 13.6462C22.9207 13.6462 23.9121 13.6462 24.8649 13.6462C24.9293 13.5521 24.9679 13.5253 24.9679 13.485C24.9808 12.6388 24.9808 11.8061 25.0065 10.9599C25.0451 9.60336 25.9722 8.6766 27.2854 8.6766C28.5858 8.6766 29.5257 9.61679 29.5514 10.9733C29.5643 11.8061 29.5514 12.6523 29.5514 13.5387C30.6587 13.5387 31.6887 13.5387 32.7445 13.5387C32.796 11.2554 33.0792 8.98552 31.1737 7.25289C32.5127 5.54712 33.0535 3.63987 32.8217 1.39685Z" fill="white"/>
<path d="M53.5894 0.32251C53.5894 0.819467 53.5894 1.24927 53.5894 1.66564C53.5894 3.98925 53.6151 6.31286 53.5765 8.63647C53.5507 9.84528 52.4435 10.7586 51.1817 10.7049C49.9328 10.6512 48.9157 9.65724 48.9672 8.54245C49.0187 7.38736 50.1388 6.42031 51.4135 6.55462C51.9671 6.60835 52.495 6.87697 53.1387 7.09187C53.1387 6.2457 53.1902 5.39953 53.113 4.5668C53.0872 4.27131 52.7396 3.82808 52.4821 3.76092C50.3706 3.30426 48.5037 3.8415 46.9844 5.45326C45.3107 7.21275 45.3107 9.9393 46.9458 11.7391C49.2247 14.2642 53.3705 14.291 55.585 11.7122C56.1386 11.0675 56.6794 10.1408 56.718 9.32146C56.8596 6.35315 56.7695 3.37141 56.7695 0.349374C55.7009 0.322511 54.6709 0.32251 53.5894 0.32251Z" fill="white"/>
<path d="M65.988 3.81464C65.8206 3.85493 65.6275 4.13699 65.6147 4.32503C65.576 5.25178 65.6018 6.17855 65.6018 7.15903C66.1039 6.94413 66.4515 6.7158 66.8378 6.62178C67.842 6.39345 68.7433 6.64864 69.3742 7.52167C69.8763 8.20667 69.8634 8.97225 69.4128 9.68411C68.8849 10.5303 67.7133 10.9064 66.6962 10.5974C65.6533 10.2751 65.1254 9.59009 65.1125 8.435C65.0996 6.32629 65.1125 4.21758 65.1125 2.10887C65.1125 1.53133 65.1125 0.940348 65.1125 0.32251C63.9924 0.32251 63.0267 0.32251 61.9066 0.32251C61.9066 2.92818 62.0354 5.42639 61.8809 7.91118C61.6491 11.4839 64.4816 13.5926 67.327 13.6329C70.1467 13.6866 72.6702 11.6988 72.9406 9.17372C73.3655 5.21149 69.2326 2.88788 65.988 3.81464Z" fill="white"/>
<path d="M78.4254 3.59955C75.2581 3.98906 73.108 6.74246 73.7646 9.63018C74.3826 12.4105 77.9748 14.4117 80.5755 13.4044C80.7687 13.3238 81.0133 13.0417 81.0262 12.8403C81.0777 11.9135 81.0519 10.9867 81.0519 10.1003C80.4082 10.3152 79.8803 10.5838 79.3395 10.651C78.2966 10.7853 77.3181 10.1137 76.9963 9.17353C76.6873 8.28706 76.9963 7.5752 77.6658 7.03795C78.4511 6.39325 79.3524 6.32609 80.2665 6.74246C81.1678 7.15883 81.5541 7.91099 81.5283 8.94519C81.5025 10.4764 81.5154 12.0075 81.5154 13.5656C82.6484 13.5656 83.6269 13.5656 84.7471 13.5656C84.7471 12.1284 84.6698 10.7853 84.7599 9.46902C85.069 5.2516 81.4124 3.23691 78.4254 3.59955Z" fill="white"/>
<path d="M41.5381 8.42165C41.551 9.32154 41.1519 9.96624 40.4051 10.396C38.7571 11.3497 36.916 10.2483 36.9031 8.28733C36.8902 6.75617 36.9031 5.22501 36.9031 3.69385C35.7572 3.69385 34.7787 3.69385 33.6843 3.69385C33.6843 5.50707 33.6457 7.19941 33.6972 8.87831C33.7358 10.2483 34.3538 11.3631 35.371 12.2361C36.9288 13.5658 38.7185 13.8345 40.6497 13.4449C40.9073 13.3912 41.1648 13.3241 41.4223 13.3375V13.727H44.6668C44.6668 13.4584 44.6668 13.2032 44.6668 12.9346C44.6668 9.72448 44.6668 6.72931 44.6668 3.7207C43.5853 3.7207 42.5939 3.7207 41.5253 3.7207C41.5253 5.33246 41.5124 6.87705 41.5381 8.42165Z" fill="white"/>
<path d="M85.3779 7.95145C85.1719 9.7781 85.3393 11.645 85.3393 13.5523C86.3693 13.5523 87.3736 13.5523 88.4551 13.5523C88.4551 11.9943 88.4808 10.5034 88.4422 8.99909C88.4164 7.91116 88.9572 7.30675 89.7941 6.7292C90.8885 5.97705 91.867 5.06372 93 4.12353C89.5752 2.68639 85.7384 4.66078 85.3779 7.95145Z" fill="white"/>
<path d="M57.7351 13.5523C58.778 13.5523 59.8209 13.5523 60.8509 13.5523C60.8509 10.2213 60.8509 6.9441 60.8509 3.6803C59.7694 3.6803 58.778 3.6803 57.7351 3.6803C57.7351 6.98439 57.7351 10.2348 57.7351 13.5523Z" fill="white"/>
<path d="M59.3573 0.255253C58.4947 0.22839 57.7093 0.94025 57.6965 1.77299C57.6836 2.552 58.3917 3.26386 59.2286 3.31758C60.0912 3.37131 60.8895 2.68631 60.9281 1.86701C60.9667 1.03427 60.22 0.282116 59.3573 0.255253Z" fill="white"/>
</svg>
