<svg width="17" height="18" viewBox="0 0 17 18" fill="none" xmlns="http://www.w3.org/2000/svg">
<path d="M3.33337 14H5.00004V15.6667H15V2.33334H5.00004V4.00001H3.33337V1.50001C3.33337 1.27899 3.42117 1.06703 3.57745 0.910749C3.73373 0.754469 3.94569 0.666672 4.16671 0.666672H15.8334C16.0544 0.666672 16.2663 0.754469 16.4226 0.910749C16.5789 1.06703 16.6667 1.27899 16.6667 1.50001V16.5C16.6667 16.721 16.5789 16.933 16.4226 17.0893C16.2663 17.2455 16.0544 17.3333 15.8334 17.3333H4.16671C3.94569 17.3333 3.73373 17.2455 3.57745 17.0893C3.42117 16.933 3.33337 16.721 3.33337 16.5V14ZM5.00004 8.16667H10.8334V9.83334H5.00004V12.3333L0.833374 9.00001L5.00004 5.66667V8.16667Z" fill="#CF0C0F"/>
</svg>
