<svg width="192" height="34" viewBox="0 0 192 34" fill="none" xmlns="http://www.w3.org/2000/svg">
<path d="M27.99 3.24463H2.4184C1.55965 3.24463 0.828125 3.97616 0.828125 4.86671V7.76101C0.828125 8.65156 1.55965 9.38309 2.4184 9.38309H27.99C28.8805 9.38309 29.5802 8.65156 29.612 7.76101V4.89851C29.612 3.97615 28.8805 3.24463 27.99 3.24463ZM27.99 19.3064H2.4184C2.00493 19.3064 1.59146 19.4654 1.30521 19.7835C0.987152 20.1015 0.828125 20.4832 0.828125 20.9285V23.8228C0.828125 24.7133 1.55965 25.4449 2.4184 25.4449H27.99C28.8805 25.4449 29.5802 24.7451 29.612 23.8228V20.9285C29.5802 20.0061 28.8805 19.3064 27.99 19.3064ZM16.8263 27.3214H2.4184C2.00493 27.3214 1.59146 27.4804 1.30521 27.7985C1.01896 28.1165 0.828125 28.4982 0.828125 28.9435V31.8378C0.828125 32.7283 1.55965 33.4598 2.4184 33.4598H16.7945C17.685 33.4598 18.3847 32.7283 18.3847 31.8696V28.9753C18.4165 28.0211 17.7168 27.2896 16.8263 27.3214ZM29.612 11.2596H2.4184C2.00493 11.2596 1.59146 11.4186 1.30521 11.7367C1.01896 12.0547 0.828125 12.4364 0.828125 12.8817V15.776C0.828125 16.6665 1.55965 17.3981 2.4184 17.3981H29.5802C30.4708 17.3981 31.1705 16.6665 31.1705 15.776V12.8817C31.2023 11.9911 30.4708 11.2914 29.612 11.2596Z" fill="#00C3F7"/>
<path d="M59.3482 9.73246C58.553 8.90552 57.6307 8.26941 56.5811 7.82414C55.5315 7.37886 54.4183 7.15622 53.2733 7.15622C52.1602 7.12442 51.0788 7.37886 50.061 7.85594C49.3931 8.17399 48.7888 8.61927 48.2799 9.15996V8.65108C48.2799 8.39663 48.1845 8.14219 48.0254 7.95136C47.8664 7.76052 47.612 7.6333 47.3257 7.6333H43.7953C43.5409 7.6333 43.2864 7.72872 43.1274 7.95136C42.9366 8.14219 42.8412 8.39663 42.873 8.65108V32.4415C42.873 32.696 42.9684 32.9504 43.1274 33.1413C43.3182 33.3321 43.5409 33.4275 43.7953 33.4275H47.4211C47.6756 33.4275 47.8982 33.3321 48.0891 33.1413C48.2799 32.9822 48.4071 32.7278 48.3753 32.4415V24.2993C48.8842 24.8718 49.5521 25.2853 50.2836 25.5398C51.2378 25.8896 52.2238 26.0805 53.2415 26.0805C54.3865 26.0805 55.5315 25.8578 56.5811 25.4125C57.6307 24.9673 58.5848 24.3312 59.38 23.5042C60.2069 22.6455 60.843 21.6277 61.2883 20.5145C61.7972 19.2741 62.0198 17.9383 61.988 16.6024C62.0198 15.2666 61.7654 13.9308 61.2883 12.6586C60.8112 11.609 60.1751 10.5912 59.3482 9.73246ZM56.104 18.3517C55.9132 18.8606 55.6269 19.3059 55.2453 19.7194C54.5138 20.5145 53.4642 20.9598 52.3828 20.9598C51.8421 20.9598 51.3014 20.8644 50.7925 20.6099C50.3154 20.3873 49.8702 20.101 49.4885 19.7194C49.1068 19.3377 48.8206 18.8606 48.6298 18.3517C48.2163 17.2704 48.2163 16.0936 48.6298 15.0122C48.8206 14.5033 49.1386 14.058 49.4885 13.6763C49.8702 13.2947 50.3154 12.9766 50.7925 12.754C51.3014 12.5313 51.8421 12.4041 52.3828 12.4041C52.9553 12.4041 53.4642 12.4995 54.0049 12.754C54.4819 12.9766 54.9272 13.2629 55.2771 13.6445C55.6587 14.0262 55.9132 14.4715 56.1358 14.9804C56.5175 16.0935 56.4857 17.2704 56.104 18.3517ZM81.4211 7.66511H77.8271C77.5727 7.66511 77.3182 7.76052 77.1592 7.95136C76.9684 8.14219 76.873 8.39663 76.873 8.68288V9.12816C76.4277 8.58746 75.8552 8.174 75.2509 7.88775C74.2649 7.41067 73.1835 7.18803 72.1021 7.18803C69.7804 7.18803 67.5858 8.11039 65.9319 9.73246C65.0732 10.5912 64.4052 11.609 63.96 12.7222C63.4511 13.9626 63.1966 15.2984 63.2284 16.666C63.1966 18.0019 63.4511 19.3377 63.96 20.6099C64.437 21.7231 65.0732 22.7409 65.9319 23.5996C67.554 25.2535 69.7804 26.1759 72.0703 26.1759C73.1517 26.2077 74.2331 25.9532 75.2191 25.4762C75.8234 25.1581 76.4277 24.7446 76.873 24.2357V24.7128C76.873 24.9673 76.9684 25.2217 77.1592 25.4125C77.35 25.5716 77.5727 25.6988 77.8271 25.6988H81.4211C81.6756 25.6988 81.93 25.6034 82.089 25.4125C82.2799 25.2217 82.3753 24.9673 82.3753 24.7128V8.71469C82.3753 8.46024 82.2799 8.2058 82.1209 8.01497C81.93 7.79233 81.6756 7.66511 81.4211 7.66511ZM76.5549 18.3517C76.3641 18.8606 76.0778 19.3059 75.6962 19.7194C75.3145 20.101 74.901 20.4191 74.4239 20.6417C73.4062 21.1188 72.2294 21.1188 71.2116 20.6417C70.7345 20.4191 70.2892 20.101 69.9076 19.7194C69.5259 19.3377 69.2397 18.8606 69.0488 18.3517C68.6672 17.2704 68.6672 16.0936 69.0488 15.0122C69.2397 14.5033 69.5259 14.0898 69.9076 13.6763C70.2892 13.2947 70.7027 12.9766 71.2116 12.754C72.2294 12.2769 73.4062 12.2769 74.3921 12.754C74.8692 12.9766 75.3145 13.2629 75.6644 13.6445C76.0142 14.0262 76.3005 14.4715 76.5231 14.9804C76.9684 16.0935 76.9684 17.2704 76.5549 18.3517ZM117.234 16.189C116.725 15.7437 116.121 15.362 115.485 15.1076C114.817 14.8213 114.085 14.6305 113.386 14.4715L110.65 13.9308C109.951 13.8036 109.442 13.6127 109.187 13.3901C108.965 13.2311 108.806 12.9766 108.806 12.6904C108.806 12.4041 108.965 12.1497 109.314 11.927C109.792 11.6726 110.3 11.5454 110.841 11.5772C111.541 11.5772 112.241 11.7362 112.877 11.9907C113.513 12.2769 114.117 12.5631 114.69 12.9448C115.485 13.4537 116.184 13.3583 116.662 12.7858L117.966 11.2909C118.22 11.0365 118.347 10.7184 118.379 10.3686C118.347 9.98691 118.156 9.66885 117.87 9.41441C117.329 8.93733 116.439 8.42844 115.262 7.91955C114.085 7.41066 112.59 7.15622 110.841 7.15622C109.76 7.12442 108.71 7.28344 107.692 7.6015C106.834 7.88774 106.007 8.30122 105.275 8.84191C104.607 9.3508 104.098 9.98691 103.717 10.7502C103.367 11.4818 103.176 12.2769 103.176 13.072C103.176 14.5669 103.621 15.7755 104.512 16.666C105.402 17.5566 106.579 18.1609 108.042 18.4471L110.905 19.0833C111.509 19.1787 112.145 19.3695 112.718 19.6558C113.036 19.783 113.227 20.101 113.227 20.4509C113.227 20.7689 113.068 21.0552 112.718 21.3096C112.368 21.5641 111.795 21.7231 111.032 21.7231C110.269 21.7231 109.474 21.5641 108.774 21.2142C108.106 20.8962 107.502 20.4827 106.929 20.0056C106.675 19.8148 106.42 19.6558 106.102 19.5285C105.784 19.4331 105.371 19.5285 104.957 19.8784L103.399 21.0552C102.953 21.3733 102.731 21.9139 102.858 22.4228C102.953 22.9635 103.367 23.4724 104.162 24.0767C106.134 25.4125 108.488 26.1123 110.873 26.0486C111.986 26.0486 113.099 25.9214 114.149 25.6034C115.071 25.3171 115.93 24.9037 116.693 24.3312C117.393 23.8223 117.966 23.1543 118.347 22.3592C118.729 21.5959 118.92 20.7689 118.92 19.9102C118.952 19.1469 118.792 18.3835 118.474 17.6838C118.156 17.1749 117.743 16.6342 117.234 16.189ZM132.946 20.5463C132.787 20.2601 132.501 20.0692 132.151 20.0056C131.833 20.0056 131.483 20.101 131.228 20.2919C130.783 20.5781 130.274 20.7371 129.765 20.7689C129.606 20.7689 129.416 20.7371 129.256 20.7053C129.066 20.6735 128.907 20.5781 128.779 20.4509C128.62 20.2919 128.493 20.101 128.398 19.9102C128.271 19.5921 128.207 19.2741 128.239 18.956V12.4359H132.882C133.169 12.4359 133.423 12.3087 133.614 12.1179C133.805 11.927 133.932 11.7044 133.932 11.4181V8.65108C133.932 8.36483 133.836 8.11038 133.614 7.95136C133.423 7.76052 133.169 7.66511 132.914 7.66511H128.239V3.21235C128.239 2.95791 128.143 2.67165 127.952 2.51263C127.762 2.3536 127.539 2.25819 127.285 2.22638H123.659C123.404 2.22638 123.15 2.32179 122.959 2.51263C122.768 2.70346 122.641 2.95791 122.641 3.21235V7.66511H120.574C120.319 7.66511 120.065 7.76053 119.874 7.98316C119.715 8.174 119.619 8.42844 119.619 8.68288V11.45C119.619 11.7044 119.715 11.9588 119.874 12.1497C120.033 12.3723 120.287 12.4677 120.574 12.4677H122.641V20.2283C122.609 21.1506 122.8 22.073 123.182 22.8999C123.532 23.5996 123.977 24.2039 124.581 24.7128C125.154 25.1899 125.821 25.5398 126.553 25.7306C127.285 25.9532 128.048 26.0805 128.811 26.0805C129.797 26.0805 130.815 25.9214 131.769 25.6034C132.66 25.3171 133.455 24.8082 134.091 24.1403C134.504 23.7268 134.536 23.0589 134.218 22.5819L132.946 20.5463ZM152.602 7.66511H149.008C148.753 7.66511 148.531 7.76052 148.34 7.95136C148.149 8.14219 148.053 8.39663 148.053 8.68288V9.12816C147.608 8.58746 147.068 8.174 146.431 7.88775C145.445 7.41067 144.364 7.18803 143.283 7.18803C140.961 7.18803 138.766 8.11039 137.112 9.73246C136.254 10.5912 135.586 11.609 135.14 12.7222C134.632 13.9626 134.377 15.2984 134.409 16.6342C134.377 17.9701 134.632 19.3059 135.14 20.5781C135.586 21.6913 136.285 22.7091 137.112 23.5678C138.734 25.2217 140.929 26.1441 143.251 26.1441C144.332 26.1759 145.414 25.9214 146.4 25.4762C147.036 25.1581 147.608 24.7446 148.053 24.2357V24.7128C148.053 24.9673 148.149 25.2217 148.34 25.3807C148.531 25.5716 148.753 25.667 149.008 25.667H152.602C153.142 25.667 153.556 25.2535 153.556 24.7128V8.71469C153.556 8.46024 153.46 8.2058 153.301 8.01497C153.142 7.79233 152.888 7.66511 152.602 7.66511ZM147.767 18.3517C147.576 18.8606 147.29 19.3059 146.908 19.7194C146.527 20.101 146.113 20.4191 145.636 20.6417C145.127 20.8644 144.587 20.9916 144.014 20.9916C143.442 20.9916 142.933 20.8644 142.424 20.6417C141.947 20.4191 141.502 20.101 141.12 19.7194C140.738 19.3377 140.452 18.8606 140.293 18.3517C139.911 17.2704 139.911 16.0936 140.293 15.0122C140.484 14.5033 140.77 14.058 141.12 13.6763C141.502 13.2947 141.947 12.9766 142.424 12.754C142.933 12.5313 143.473 12.4041 144.014 12.4041C144.555 12.4041 145.096 12.4995 145.636 12.754C146.113 12.9766 146.527 13.2629 146.908 13.6445C147.29 14.0262 147.576 14.4715 147.767 14.9804C148.181 16.0617 148.181 17.2704 147.767 18.3517ZM172.321 20.2919L170.254 18.7016C169.872 18.3835 169.49 18.2881 169.172 18.4153C168.886 18.5426 168.632 18.7334 168.409 18.956C167.964 19.4967 167.423 19.9738 166.85 20.3873C166.214 20.7371 165.546 20.928 164.847 20.8644C164.02 20.8644 163.256 20.6417 162.589 20.1646C161.921 19.6876 161.412 19.0515 161.157 18.2563C160.966 17.7156 160.871 17.1749 160.871 16.6342C160.871 16.0617 160.966 15.521 161.157 14.9486C161.348 14.4397 161.603 13.9944 161.984 13.6127C162.366 13.2311 162.779 12.913 163.256 12.7222C163.765 12.4995 164.306 12.3723 164.879 12.3723C165.578 12.3405 166.278 12.5313 166.882 12.8812C167.487 13.2629 167.995 13.7399 168.441 14.3124C168.632 14.5351 168.886 14.7259 169.172 14.8531C169.49 14.9804 169.872 14.8849 170.254 14.5669L172.321 13.0084C172.575 12.8494 172.766 12.595 172.862 12.3087C172.989 11.9907 172.957 11.6408 172.766 11.3545C171.971 10.1141 170.89 9.09635 169.586 8.36483C168.218 7.6015 166.596 7.18803 164.783 7.18803C163.511 7.18803 162.239 7.44247 161.03 7.91955C159.885 8.39663 158.867 9.06455 158.009 9.92329C157.15 10.782 156.45 11.7998 155.973 12.9448C154.987 15.3302 154.987 18.0019 155.973 20.3873C156.45 21.5005 157.118 22.55 158.009 23.377C159.821 25.1581 162.239 26.1123 164.783 26.1123C166.596 26.1123 168.218 25.6988 169.586 24.9355C170.89 24.2039 172.003 23.1862 172.798 21.9139C172.957 21.6277 172.989 21.2778 172.893 20.9916C172.766 20.7371 172.575 20.4827 172.321 20.2919ZM191.468 24.0131L185.775 15.6801L190.641 9.25538C190.864 8.96913 190.959 8.55566 190.832 8.2058C190.736 7.95136 190.514 7.69691 189.909 7.69691H186.061C185.838 7.69691 185.616 7.76052 185.425 7.85594C185.17 7.98316 184.98 8.17399 184.852 8.39663L180.972 13.8354H180.05V0.98597C180.05 0.731527 179.954 0.47708 179.763 0.286247C179.573 0.0954143 179.35 0 179.096 0H175.502C175.247 0 174.993 0.0954143 174.802 0.286247C174.611 0.47708 174.516 0.699721 174.516 0.98597V24.681C174.516 24.9673 174.611 25.1899 174.802 25.3807C174.993 25.5716 175.247 25.667 175.502 25.667H179.096C179.35 25.667 179.604 25.5716 179.763 25.3807C179.954 25.1899 180.05 24.9355 180.05 24.681V18.4153H181.067L185.298 24.9036C185.552 25.3807 186.029 25.667 186.538 25.667H190.577C191.182 25.667 191.436 25.3807 191.563 25.1263C191.722 24.7446 191.691 24.3312 191.468 24.0131ZM101.84 7.66511H97.8009C97.4829 7.66511 97.1966 7.76053 96.974 7.98316C96.7831 8.174 96.6559 8.39663 96.5923 8.65108L93.6026 19.7194H92.8711L89.6905 8.65108C89.6269 8.42844 89.5315 8.2058 89.3725 7.98316C89.1817 7.76053 88.9272 7.6333 88.641 7.6333H84.5381C83.9974 7.6333 83.6793 7.79233 83.5203 8.17399C83.4249 8.49205 83.4249 8.84191 83.5203 9.15996L88.6092 24.7446C88.7046 24.9673 88.8 25.2217 88.9908 25.3807C89.1817 25.5716 89.4679 25.667 89.7542 25.667H91.9169L91.7261 26.1759L91.249 27.6071C91.09 28.0524 90.8355 28.434 90.4539 28.7203C90.104 28.9747 89.6905 29.1338 89.2453 29.102C88.8636 29.102 88.5137 29.0065 88.1639 28.8793C87.814 28.7203 87.496 28.5295 87.2097 28.3068C86.9553 28.116 86.6372 28.0206 86.2874 28.0206H86.2556C85.8739 28.0524 85.524 28.2432 85.3332 28.5931L84.061 30.4696C83.5521 31.2965 83.8383 31.8054 84.1564 32.0917C84.8561 32.7278 85.6513 33.2049 86.5418 33.4911C87.5278 33.841 88.5455 34 89.5633 34C91.408 34 92.9347 33.4911 94.1115 32.5052C95.3201 31.4238 96.2425 30.0243 96.6877 28.4341L102.604 9.15996C102.731 8.8101 102.763 8.46025 102.635 8.14219C102.604 7.91955 102.381 7.66511 101.84 7.66511Z" fill="#011B33"/>
</svg>
