<svg width="22" height="24" viewBox="0 0 22 24" fill="none" xmlns="http://www.w3.org/2000/svg">
<path d="M19.7612 4.82467L12.8312 0.823008C11.6996 0.169674 10.2996 0.169674 9.15624 0.823008L2.23791 4.82467C1.10625 5.47801 0.40625 6.69134 0.40625 8.00967V15.9897C0.40625 17.2963 1.10625 18.5097 2.23791 19.1747L9.16791 23.1763C10.2996 23.8297 11.6996 23.8297 12.8429 23.1763L19.7729 19.1747C20.9046 18.5213 21.6046 17.308 21.6046 15.9897V8.00967C21.5929 6.69134 20.8929 5.48967 19.7612 4.82467ZM13.6246 13.633L12.4112 14.333L11.1979 15.033C9.64624 15.9313 8.37458 15.1963 8.37458 13.3997V11.9997V10.5997C8.37458 8.80301 9.64624 8.06801 11.1979 8.96634L12.4112 9.66634L13.6246 10.3663C15.1762 11.2647 15.1762 12.7347 13.6246 13.633Z" fill="#FCAC0D"/>
</svg>
