<svg width="9" height="10" viewBox="0 0 9 10" fill="none" xmlns="http://www.w3.org/2000/svg">
<path d="M1.25 0.5C1.44891 0.5 1.63968 0.579018 1.78033 0.71967C1.92098 0.860322 2 1.05109 2 1.25V8.75C2 8.94891 1.92098 9.13968 1.78033 9.28033C1.63968 9.42098 1.44891 9.5 1.25 9.5C1.05109 9.5 0.860322 9.42098 0.71967 9.28033C0.579018 9.13968 0.5 8.94891 0.5 8.75V1.25C0.5 1.05109 0.579018 0.860322 0.71967 0.71967C0.860322 0.579018 1.05109 0.5 1.25 0.5ZM2.80925 5.306C2.76034 5.27135 2.72045 5.22549 2.69292 5.17225C2.66539 5.119 2.65102 5.05994 2.65102 5C2.65102 4.94006 2.66539 4.881 2.69292 4.82775C2.72045 4.77451 2.76034 4.72865 2.80925 4.694L8.159 0.917C8.21517 0.877421 8.28114 0.854035 8.34969 0.849398C8.41825 0.844761 8.48677 0.859051 8.54775 0.890706C8.60874 0.922361 8.65986 0.970166 8.69553 1.0289C8.73119 1.08763 8.75004 1.15504 8.75 1.22375V8.77625C8.75004 8.84496 8.73119 8.91237 8.69553 8.9711C8.65986 9.02983 8.60874 9.07764 8.54775 9.10929C8.48677 9.14095 8.41825 9.15524 8.34969 9.1506C8.28114 9.14596 8.21517 9.12258 8.159 9.083L2.80925 5.306Z" fill="white"/>
</svg>
