<svg width="18" height="18" viewBox="0 0 18 18" fill="none" xmlns="http://www.w3.org/2000/svg">
<path fill-rule="evenodd" clip-rule="evenodd" d="M11.4188 12.5997C10.2899 13.4773 8.87132 13.9998 7.33073 13.9998C3.64883 13.9998 0.664062 11.0151 0.664062 7.33317C0.664062 3.65127 3.64883 0.666504 7.33073 0.666504C11.0126 0.666504 13.9974 3.65127 13.9974 7.33317C13.9974 8.87376 13.4748 10.2923 12.5973 11.4212L17.0867 15.9106C17.4121 16.236 17.4121 16.7637 17.0867 17.0891C16.7612 17.4145 16.2336 17.4145 15.9081 17.0891L11.4188 12.5997ZM12.3307 7.33317C12.3307 10.0946 10.0922 12.3332 7.33073 12.3332C4.56931 12.3332 2.33073 10.0946 2.33073 7.33317C2.33073 4.57175 4.56931 2.33317 7.33073 2.33317C10.0922 2.33317 12.3307 4.57175 12.3307 7.33317Z" fill="#777E91"/>
</svg>
