<svg width="186" height="186" viewBox="0 0 186 186" fill="none" xmlns="http://www.w3.org/2000/svg">
<circle cx="93.0027" cy="93.0003" r="75.8816" fill="#C7C7C7"/>
<g filter="url(#filter0_f_1323_8818)">
<path d="M24.9213 93.5209C24.8054 78.3834 29.738 63.639 38.9392 51.6185C48.1405 39.5979 61.0856 30.9868 75.7283 27.1464L77.0497 32.1846C63.5272 35.7312 51.5725 43.6835 43.0752 54.7844C34.5779 65.8853 30.0228 79.5016 30.1297 93.481L24.9213 93.5209Z" fill="white" fill-opacity="0.8"/>
</g>
<circle cx="93" cy="93" r="80.1367" stroke="black"/>
<circle cx="92.9993" cy="93.0003" r="85.1009" stroke="black" stroke-opacity="0.3"/>
<path d="M69.6816 89.0487C74.4816 89.0487 76.8096 86.6487 76.8096 83.8407C76.8096 77.6727 67.0416 79.8087 67.0416 76.7127C67.0416 75.6567 67.9296 74.7927 70.2336 74.7927C71.7216 74.7927 73.3296 75.2247 74.8896 76.1127L76.0896 73.1607C74.5296 72.1767 72.3696 71.6727 70.2576 71.6727C65.4816 71.6727 63.1776 74.0487 63.1776 76.9047C63.1776 83.1447 72.9456 80.9847 72.9456 84.1287C72.9456 85.1607 72.0096 85.9287 69.7056 85.9287C67.6896 85.9287 65.5776 85.2087 64.1616 84.1767L62.8416 87.1047C64.3296 88.2567 67.0176 89.0487 69.6816 89.0487ZM86.5223 85.4967C86.1143 85.8087 85.5623 85.9767 85.0103 85.9767C84.0023 85.9767 83.4023 85.3767 83.4023 84.2727V79.0167H86.6183V76.1367H83.4023V72.9927H79.6583V76.1367H77.6663V79.0167H79.6583V84.3207C79.6583 87.3927 81.4343 88.9527 84.4823 88.9527C85.6343 88.9527 86.7623 88.6887 87.5303 88.1367L86.5223 85.4967ZM94.84 75.6567C92.776 75.6567 90.688 76.2087 89.272 77.2167L90.616 79.8327C91.552 79.0887 92.968 78.6327 94.336 78.6327C96.352 78.6327 97.312 79.5687 97.312 81.1767H94.336C90.4 81.1767 88.792 82.7607 88.792 85.0407C88.792 87.2727 90.592 88.9527 93.616 88.9527C95.512 88.9527 96.856 88.3287 97.552 87.1527V88.7607H101.056V81.3927C101.056 77.4807 98.776 75.6567 94.84 75.6567ZM94.552 86.4327C93.232 86.4327 92.44 85.8087 92.44 84.8727C92.44 84.0087 92.992 83.3607 94.744 83.3607H97.312V84.6807C96.88 85.8567 95.8 86.4327 94.552 86.4327ZM108.021 77.5527V75.8487H104.445V88.7607H108.189V82.6647C108.189 80.1927 109.557 79.0647 111.621 79.0647C111.909 79.0647 112.149 79.0887 112.461 79.1127V75.6567C110.469 75.6567 108.933 76.3047 108.021 77.5527ZM122.452 85.4967C122.044 85.8087 121.492 85.9767 120.94 85.9767C119.932 85.9767 119.332 85.3767 119.332 84.2727V79.0167H122.548V76.1367H119.332V72.9927H115.588V76.1367H113.596V79.0167H115.588V84.3207C115.588 87.3927 117.364 88.9527 120.412 88.9527C121.564 88.9527 122.692 88.6887 123.46 88.1367L122.452 85.4967ZM61.4663 113.761H69.0983C74.5943 113.761 78.3623 110.449 78.3623 105.361C78.3623 100.273 74.5943 96.9607 69.0983 96.9607H61.4663V113.761ZM65.3543 110.569V100.153H68.9063C72.2423 100.153 74.4263 102.145 74.4263 105.361C74.4263 108.577 72.2423 110.569 68.9063 110.569H65.3543ZM84.6065 102.553V100.849H81.0305V113.761H84.7745V107.665C84.7745 105.193 86.1425 104.065 88.2065 104.065C88.4945 104.065 88.7345 104.089 89.0465 104.113V100.657C87.0545 100.657 85.5185 101.305 84.6065 102.553ZM96.4103 100.657C94.3463 100.657 92.2583 101.209 90.8423 102.217L92.1863 104.833C93.1223 104.089 94.5383 103.633 95.9063 103.633C97.9223 103.633 98.8823 104.569 98.8823 106.177H95.9063C91.9703 106.177 90.3623 107.761 90.3623 110.041C90.3623 112.273 92.1623 113.953 95.1863 113.953C97.0823 113.953 98.4263 113.329 99.1223 112.153V113.761H102.626V106.393C102.626 102.481 100.346 100.657 96.4103 100.657ZM96.1223 111.433C94.8023 111.433 94.0103 110.809 94.0103 109.873C94.0103 109.009 94.5623 108.361 96.3143 108.361H98.8823V109.681C98.4503 110.857 97.3703 111.433 96.1223 111.433ZM123.204 100.849L120.06 109.585L116.988 100.849H113.82L110.652 109.585L107.604 100.849H104.076L108.732 113.761H112.332L115.332 105.745L118.236 113.761H121.836L126.516 100.849H123.204Z" fill="#444343"/>
<defs>
<filter id="filter0_f_1323_8818" x="4.91797" y="7.14648" width="92.1328" height="106.375" filterUnits="userSpaceOnUse" color-interpolation-filters="sRGB">
<feFlood flood-opacity="0" result="BackgroundImageFix"/>
<feBlend mode="normal" in="SourceGraphic" in2="BackgroundImageFix" result="shape"/>
<feGaussianBlur stdDeviation="10" result="effect1_foregroundBlur_1323_8818"/>
</filter>
</defs>
</svg>
