<svg width="263" height="263" viewBox="0 0 263 263" fill="none" xmlns="http://www.w3.org/2000/svg">
<circle cx="131.141" cy="131.139" r="107" fill="url(#paint0_linear_1323_8735)"/>
<g filter="url(#filter0_f_1323_8735)">
<path d="M35.1417 131.873C34.9784 110.528 41.9337 89.737 54.9083 72.7869C67.8829 55.8369 86.1367 43.6945 106.784 38.2791L108.648 45.3835C89.5797 50.3845 72.7224 61.5979 60.7405 77.2512C48.7585 92.9045 42.3353 112.105 42.4861 131.817L35.1417 131.873Z" fill="white" fill-opacity="0.8"/>
</g>
<circle cx="131.141" cy="131.139" r="113" stroke="black"/>
<circle cx="131.141" cy="131.139" r="120" stroke="black" stroke-opacity="0.3"/>
<path d="M98.1039 125.547C104.904 125.547 108.202 122.147 108.202 118.169C108.202 109.431 94.3639 112.457 94.3639 108.071C94.3639 106.575 95.6219 105.351 98.8859 105.351C100.994 105.351 103.272 105.963 105.482 107.221L107.182 103.039C104.972 101.645 101.912 100.931 98.9199 100.931C92.1539 100.931 88.8899 104.297 88.8899 108.343C88.8899 117.183 102.728 114.123 102.728 118.577C102.728 120.039 101.402 121.127 98.1379 121.127C95.2819 121.127 92.2899 120.107 90.2839 118.645L88.4139 122.793C90.5219 124.425 94.3299 125.547 98.1039 125.547ZM121.962 120.515C121.384 120.957 120.602 121.195 119.82 121.195C118.392 121.195 117.542 120.345 117.542 118.781V111.335H122.098V107.255H117.542V102.801H112.238V107.255H109.416V111.335H112.238V118.849C112.238 123.201 114.754 125.411 119.072 125.411C120.704 125.411 122.302 125.037 123.39 124.255L121.962 120.515ZM133.745 106.575C130.821 106.575 127.863 107.357 125.857 108.785L127.761 112.491C129.087 111.437 131.093 110.791 133.031 110.791C135.887 110.791 137.247 112.117 137.247 114.395H133.031C127.455 114.395 125.177 116.639 125.177 119.869C125.177 123.031 127.727 125.411 132.011 125.411C134.697 125.411 136.601 124.527 137.587 122.861V125.139H142.551V114.701C142.551 109.159 139.321 106.575 133.745 106.575ZM133.337 121.841C131.467 121.841 130.345 120.957 130.345 119.631C130.345 118.407 131.127 117.489 133.609 117.489H137.247V119.359C136.635 121.025 135.105 121.841 133.337 121.841ZM152.417 109.261V106.847H147.351V125.139H152.655V116.503C152.655 113.001 154.593 111.403 157.517 111.403C157.925 111.403 158.265 111.437 158.707 111.471V106.575C155.885 106.575 153.709 107.493 152.417 109.261ZM172.862 120.515C172.284 120.957 171.502 121.195 170.72 121.195C169.292 121.195 168.442 120.345 168.442 118.781V111.335H172.998V107.255H168.442V102.801H163.138V107.255H160.316V111.335H163.138V118.849C163.138 123.201 165.654 125.411 169.972 125.411C171.604 125.411 173.202 125.037 174.29 124.255L172.862 120.515ZM86.4656 162.139H97.2776C105.064 162.139 110.402 157.447 110.402 150.239C110.402 143.031 105.064 138.339 97.2776 138.339H86.4656V162.139ZM91.9736 157.617V142.861H97.0056C101.732 142.861 104.826 145.683 104.826 150.239C104.826 154.795 101.732 157.617 97.0056 157.617H91.9736ZM119.247 146.261V143.847H114.181V162.139H119.485V153.503C119.485 150.001 121.423 148.403 124.347 148.403C124.755 148.403 125.095 148.437 125.537 148.471V143.575C122.715 143.575 120.539 144.493 119.247 146.261ZM135.97 143.575C133.046 143.575 130.088 144.357 128.082 145.785L129.986 149.491C131.312 148.437 133.318 147.791 135.256 147.791C138.112 147.791 139.472 149.117 139.472 151.395H135.256C129.68 151.395 127.402 153.639 127.402 156.869C127.402 160.031 129.952 162.411 134.236 162.411C136.922 162.411 138.826 161.527 139.812 159.861V162.139H144.776V151.701C144.776 146.159 141.546 143.575 135.97 143.575ZM135.562 158.841C133.692 158.841 132.57 157.957 132.57 156.631C132.57 155.407 133.352 154.489 135.834 154.489H139.472V156.359C138.86 158.025 137.33 158.841 135.562 158.841ZM173.928 143.847L169.474 156.223L165.122 143.847H160.634L156.146 156.223L151.828 143.847H146.83L153.426 162.139H158.526L162.776 150.783L166.89 162.139H171.99L178.62 143.847H173.928Z" fill="white"/>
<defs>
<filter id="filter0_f_1323_8735" x="15.1406" y="18.2793" width="113.508" height="133.594" filterUnits="userSpaceOnUse" color-interpolation-filters="sRGB">
<feFlood flood-opacity="0" result="BackgroundImageFix"/>
<feBlend mode="normal" in="SourceGraphic" in2="BackgroundImageFix" result="shape"/>
<feGaussianBlur stdDeviation="10" result="effect1_foregroundBlur_1323_8735"/>
</filter>
<linearGradient id="paint0_linear_1323_8735" x1="3.14062" y1="-4.36133" x2="207.641" y2="238.139" gradientUnits="userSpaceOnUse">
<stop stop-color="#CF0C0F"/>
<stop offset="1" stop-color="#8D090B"/>
</linearGradient>
</defs>
</svg>
