<svg width="176" height="176" viewBox="0 0 176 176" fill="none" xmlns="http://www.w3.org/2000/svg">
<path opacity="0.5" d="M88.0002 0.000358886C136.601 0.000358886 176 39.3994 176 88.0002C176 136.601 136.601 176 88.0002 176C39.3994 176 0.000365012 136.601 0.000365012 88.0002C-0.137926 39.5372 39.0366 0.13865 87.4992 0.000358886C87.6662 -0.000119629 87.8332 -0.000119629 88.0002 0.000358886Z" fill="#ADE0BF" fill-opacity="0.5"/>
<path opacity="0.8" d="M88.0002 11.8922C130.033 11.8922 164.108 45.967 164.108 88.0001C164.108 130.033 130.033 164.108 88.0002 164.108C45.9671 164.108 11.8923 130.033 11.8923 88.0001C11.7727 46.0862 45.6534 12.0118 87.5669 11.8922C87.7114 11.8917 87.8558 11.8917 88.0002 11.8922Z" fill="#7BCE98" fill-opacity="0.4"/>
<path d="M87.9999 23.784C123.465 23.784 152.216 52.5047 152.216 87.9334C152.216 123.362 123.465 152.083 87.9999 152.083C52.5344 152.083 23.7838 123.362 23.7838 87.9334C23.6829 52.6052 52.2698 23.8848 87.6343 23.784C87.7562 23.7836 87.8781 23.7836 87.9999 23.784Z" fill="#348B52"/>
<path d="M111.104 70.6719L79.3359 102.44L64.8958 88.0001" stroke="#FBF8FC" stroke-width="7" stroke-linecap="round" stroke-linejoin="round"/>
</svg>
