<svg width="176" height="176" viewBox="0 0 176 176" fill="none" xmlns="http://www.w3.org/2000/svg">
<path opacity="0.5" d="M88.0002 0.000358886C136.601 0.000358886 176 39.3994 176 88.0002C176 136.601 136.601 176 88.0002 176C39.3994 176 0.000365012 136.601 0.000365012 88.0002C-0.137926 39.5372 39.0366 0.13865 87.4992 0.000358886C87.6662 -0.000119629 87.8332 -0.000119629 88.0002 0.000358886Z" fill="#FCAC0D" fill-opacity="0.5"/>
<path opacity="0.8" d="M87.9989 11.8924C130.032 11.8924 164.107 45.9672 164.107 88.0004C164.107 130.034 130.032 164.108 87.9989 164.108C45.9657 164.108 11.8909 130.034 11.8909 88.0004C11.7713 46.0864 45.652 12.012 87.5656 11.8924C87.71 11.892 87.8545 11.892 87.9989 11.8924Z" fill="#FCAC0D" fill-opacity="0.4"/>
<path d="M87.9976 23.784C123.463 23.784 152.214 52.5047 152.214 87.9334C152.214 123.362 123.463 152.083 87.9976 152.083C52.5321 152.083 23.7815 123.362 23.7815 87.9334C23.6806 52.6052 52.2674 23.8848 87.632 23.784C87.7539 23.7836 87.8757 23.7836 87.9976 23.784Z" fill="#FCAC0D"/>
<g clip-path="url(#clip0_2671_20037)">
<path d="M88.4339 122.122C69.8259 122.122 54.7422 107.038 54.7422 88.4299C54.7422 69.822 69.8259 54.7383 88.4339 54.7383C107.042 54.7383 122.126 69.822 122.126 88.4299C122.126 107.038 107.042 122.122 88.4339 122.122ZM88.4339 115.383C95.5823 115.383 102.438 112.544 107.493 107.489C112.547 102.434 115.387 95.5784 115.387 88.4299C115.387 81.2815 112.547 74.4258 107.493 69.3711C102.438 64.3163 95.5823 61.4766 88.4339 61.4766C81.2854 61.4766 74.4297 64.3163 69.375 69.3711C64.3202 74.4258 61.4805 81.2815 61.4805 88.4299C61.4805 95.5784 64.3202 102.434 69.375 107.489C74.4297 112.544 81.2854 115.383 88.4339 115.383ZM85.0647 71.5841H91.803V78.3224H85.0647V71.5841ZM85.0647 85.0608H91.803V105.276H85.0647V85.0608Z" fill="black"/>
</g>
<defs>
<clipPath id="clip0_2671_20037">
<rect width="80.86" height="80.86" fill="white" transform="translate(48 48)"/>
</clipPath>
</defs>
</svg>
