<svg width="22" height="20" viewBox="0 0 22 20" fill="none" xmlns="http://www.w3.org/2000/svg">
<path d="M2.49579 7.06484L3.78179 17.9998H18.2258L19.5118 7.06484L15.5018 9.73784L11.0038 3.44084L6.50579 9.73784L2.49579 7.06484ZM1.80479 4.19984L6.00379 6.99984L10.1898 1.13984C10.2823 1.01021 10.4044 0.904544 10.546 0.83164C10.6876 0.758737 10.8445 0.720703 11.0038 0.720703C11.163 0.720703 11.32 0.758737 11.4616 0.83164C11.6032 0.904544 11.7253 1.01021 11.8178 1.13984L16.0038 6.99984L20.2038 4.19984C20.3627 4.09408 20.5487 4.03604 20.7395 4.03257C20.9304 4.0291 21.1183 4.08035 21.281 4.18026C21.4437 4.28017 21.5744 4.42456 21.6576 4.59637C21.7409 4.76819 21.7732 4.96024 21.7508 5.14984L20.1078 19.1168C20.0791 19.3601 19.9622 19.5844 19.7792 19.7471C19.5961 19.9099 19.3597 19.9998 19.1148 19.9998H2.89279C2.64786 19.9998 2.41145 19.9099 2.22842 19.7471C2.04538 19.5844 1.92845 19.3601 1.89979 19.1168L0.256792 5.14884C0.234592 4.95932 0.267077 4.76741 0.350412 4.59576C0.433748 4.4241 0.564454 4.27987 0.727103 4.1801C0.889751 4.08032 1.07755 4.02916 1.26833 4.03266C1.45911 4.03616 1.64491 4.09417 1.80379 4.19984H1.80479ZM11.0038 13.9998C10.4734 13.9998 9.96465 13.7891 9.58958 13.4141C9.21451 13.039 9.00379 12.5303 9.00379 11.9998C9.00379 11.4694 9.21451 10.9607 9.58958 10.5856C9.96465 10.2106 10.4734 9.99984 11.0038 9.99984C11.5342 9.99984 12.0429 10.2106 12.418 10.5856C12.7931 10.9607 13.0038 11.4694 13.0038 11.9998C13.0038 12.5303 12.7931 13.039 12.418 13.4141C12.0429 13.7891 11.5342 13.9998 11.0038 13.9998Z" fill="white"/>
</svg>
