<svg width="22" height="22" viewBox="0 0 22 22" fill="none" xmlns="http://www.w3.org/2000/svg">
<path d="M7.68735 3.00037L10.2943 0.393372C10.4819 0.205901 10.7362 0.100586 11.0013 0.100586C11.2665 0.100586 11.5208 0.205901 11.7083 0.393372L14.3153 3.00037H18.0013C18.2666 3.00037 18.5209 3.10573 18.7085 3.29327C18.896 3.4808 19.0013 3.73516 19.0013 4.00037V7.68637L21.6083 10.2934C21.7958 10.4809 21.9011 10.7352 21.9011 11.0004C21.9011 11.2655 21.7958 11.5198 21.6083 11.7074L19.0013 14.3144V18.0004C19.0013 18.2656 18.896 18.5199 18.7085 18.7075C18.5209 18.895 18.2666 19.0004 18.0013 19.0004H14.3153L11.7083 21.6074C11.5208 21.7948 11.2665 21.9002 11.0013 21.9002C10.7362 21.9002 10.4819 21.7948 10.2943 21.6074L7.68735 19.0004H4.00135C3.73613 19.0004 3.48178 18.895 3.29424 18.7075C3.10671 18.5199 3.00135 18.2656 3.00135 18.0004V14.3144L0.394349 11.7074C0.206878 11.5198 0.101563 11.2655 0.101562 11.0004C0.101562 10.7352 0.206878 10.4809 0.394349 10.2934L3.00135 7.68637V4.00037C3.00135 3.73516 3.10671 3.4808 3.29424 3.29327C3.48178 3.10573 3.73613 3.00037 4.00135 3.00037H7.68735ZM11.0013 14.0004C11.797 14.0004 12.5601 13.6843 13.1227 13.1217C13.6853 12.5591 14.0013 11.796 14.0013 11.0004C14.0013 10.2047 13.6853 9.44166 13.1227 8.87905C12.5601 8.31644 11.797 8.00037 11.0013 8.00037C10.2057 8.00037 9.44264 8.31644 8.88003 8.87905C8.31742 9.44166 8.00135 10.2047 8.00135 11.0004C8.00135 11.796 8.31742 12.5591 8.88003 13.1217C9.44264 13.6843 10.2057 14.0004 11.0013 14.0004Z" fill="url(#paint0_linear_3882_4575)"/>
<defs>
<linearGradient id="paint0_linear_3882_4575" x1="11.8079" y1="-2.4427" x2="-10.8753" y2="3.57627" gradientUnits="userSpaceOnUse">
<stop stop-color="#A608A3"/>
<stop offset="0.484375" stop-color="#C6155F"/>
<stop offset="1" stop-color="#D82023"/>
</linearGradient>
</defs>
</svg>
